<svg xmlns="http://www.w3.org/2000/svg" version="1.1" xmlns:xlink="http://www.w3.org/1999/xlink" xmlns:svgjs="http://svgjs.dev/svgjs" width="1000" height="782" viewBox="0 0 1000 782"><g transform="matrix(1,0,0,1,-0.6060606060606233,0.28314999369422367)"><svg viewBox="0 0 396 310" data-background-color="#ffffff" preserveAspectRatio="xMidYMid meet" height="782" width="1000" xmlns="http://www.w3.org/2000/svg" xmlns:xlink="http://www.w3.org/1999/xlink"><g id="tight-bounds" transform="matrix(1,0,0,1,0.2400000000000091,-0.1122461611831227)"><svg viewBox="0 0 395.52 310.22449232236625" height="310.22449232236625" width="395.52"><g><svg viewBox="0 0 395.52 310.22449232236625" height="310.22449232236625" width="395.52"><g><svg viewBox="0 0 395.52 310.22449232236625" height="310.22449232236625" width="395.52"><g><svg viewBox="0 0 395.52 310.22449232236625" height="310.22449232236625" width="395.52"><g><svg viewBox="0 0 395.52 245.3006332121406" height="245.3006332121406" width="395.52"><g transform="matrix(1,0,0,1,0,0)"><svg width="395.52" viewBox="20.852588653564453 -24.869369506835938 43.33189010620117 26.87434959411621" height="245.3006332121406" data-palette-color="#50a060"><path d="M40.087-9.752c0.339 2.9-0.236 5.132-1.725 6.695-1.489 1.563-3.782 2.526-6.881 2.888v0c-3.099 0.362-5.556-0.045-7.372-1.222-1.809-1.178-2.883-3.217-3.222-6.117v0l-0.034-0.298 6.972-0.815 0.031 0.268c0.123 1.053 0.406 1.782 0.85 2.186 0.45 0.404 1.079 0.559 1.887 0.464v0c0.808-0.094 1.381-0.39 1.718-0.885 0.345-0.497 0.455-1.271 0.333-2.325v0l-1.763-15.087 7.439-0.869zM61.529 2.005l-7.381-0.846 0.957-8.355c0.118-1.033 0.28-2.092 0.484-3.175 0.204-1.077 0.395-1.981 0.573-2.713 0.171-0.732 0.281-1.196 0.33-1.391v0l-0.139-0.016-6.08 15.207-5.822-0.667-2.527-16.163-0.129-0.015c-0.003 0.201 0.007 0.675 0.028 1.423 0.016 0.74 0.005 1.658-0.033 2.754-0.032 1.103-0.108 2.172-0.227 3.205v0l-0.957 8.355-6.845-0.784 2.655-23.178 10.521 1.205 1.966 13.773 0.139 0.016 4.999-12.975 10.143 1.162z" opacity="1" transform="matrix(1,0,0,1,0,0)" fill="#50a060" class="undefined-text-0" data-fill-palette-color="primary" id="text-0"></path></svg></g></svg></g><g transform="matrix(1,0,0,1,118.31980799999998,277.2475341792328)"><svg viewBox="0 0 158.88038400000002 32.976958143133466" height="32.976958143133466" width="158.88038400000002"><g transform="matrix(1,0,0,1,0,0)"><svg width="158.88038400000002" viewBox="-11.350000381469727 -47 336.02001953125 69.75" height="32.976958143133466" data-palette-color="#c9efc7"><path d="M7.75-26.6Q5.65-26.6 4.6-27.58 3.55-28.55 3.55-30.3L3.55-30.3Q3.55-32.05 4.93-33.23 6.3-34.4 8.35-34.4L8.35-34.4Q10.2-34.4 11.35-33.5 12.5-32.6 12.5-30.95L12.5-30.95Q12.5-28.95 11.2-27.78 9.9-26.6 7.75-26.6L7.75-26.6ZM16.75-11.05Q17.4-11.05 17.78-10.43 18.15-9.8 18.15-8.85L18.15-8.85Q18.15-7.7 17.8-7.05 17.45-6.4 16.7-5.9L16.7-5.9Q13.2-3.6 7.35 0.45L7.35 0.45Q5.4 10.85 2.3 16.8-0.8 22.75-5.6 22.75L-5.6 22.75Q-8.2 22.75-9.78 21.18-11.35 19.6-11.35 17.05L-11.35 17.05Q-11.35 13.5-8.6 9.47-5.85 5.45 1.75-0.45L1.75-0.45 2.1-3Q2.8-7.8 3.2-12.45L3.2-12.45Q3.5-15.15 4.15-20.5L4.15-20.5Q4.35-21.95 5.25-22.63 6.15-23.3 8-23.3L8-23.3Q9.5-23.3 9.98-22.85 10.45-22.4 10.45-21.6L10.45-21.6Q10.45-19.3 8.8-8.9L8.8-8.9 8.3-5.45Q12.3-8.45 15.6-10.65L15.6-10.65Q16.25-11.05 16.75-11.05L16.75-11.05ZM-5.05 17.9Q-3.75 17.9-2.2 14.95-0.65 12 0.7 5.45L0.7 5.45Q-3.1 8.7-4.78 11.33-6.45 13.95-6.45 15.95L-6.45 15.95Q-6.45 17.9-5.05 17.9L-5.05 17.9ZM40.6-15.35Q41.25-15.35 41.6-14.7 41.95-14.05 41.95-13.05L41.95-13.05Q41.95-10.65 40.5-10.2L40.5-10.2Q37.5-9.15 33.9-9L33.9-9Q32.95-4.8 30.15-2.27 27.35 0.25 23.8 0.25L23.8 0.25Q20.8 0.25 18.67-1.2 16.55-2.65 15.45-5.05 14.35-7.45 14.35-10.25L14.35-10.25Q14.35-14.05 15.8-17.03 17.25-20 19.8-21.68 22.35-23.35 25.45-23.35L25.45-23.35Q29.25-23.35 31.57-20.73 33.9-18.1 34.3-14.25L34.3-14.25Q36.65-14.4 39.9-15.25L39.9-15.25Q40.3-15.35 40.6-15.35L40.6-15.35ZM24.2-5.05Q25.8-5.05 26.97-6.35 28.15-7.65 28.55-10.1L28.55-10.1Q27-11.15 26.17-12.85 25.35-14.55 25.35-16.45L25.35-16.45Q25.35-17.25 25.5-18.05L25.5-18.05 25.25-18.05Q23.25-18.05 21.92-16.13 20.6-14.2 20.6-10.7L20.6-10.7Q20.6-7.95 21.67-6.5 22.75-5.05 24.2-5.05L24.2-5.05ZM65.4-11.15Q66.05-11.15 66.42-10.55 66.8-9.95 66.8-8.9L66.8-8.9Q66.8-6.9 65.84-5.8L65.84-5.8Q63.55-3.15 61.12-1.45 58.7 0.25 55.6 0.25L55.6 0.25Q53.05 0.25 51.75-1.23 50.45-2.7 50.45-5.5L50.45-5.5Q50.45-6.9 51.15-10.5L51.15-10.5Q51.8-13.65 51.8-14.85L51.8-14.85Q51.8-15.65 51.25-15.65L51.25-15.65Q50.6-15.65 49.4-13.98 48.2-12.3 47-9.55 45.8-6.8 45.05-3.75L45.05-3.75Q44.1 0.25 40.35 0.25L40.35 0.25Q38.85 0.25 38.37-0.83 37.9-1.9 37.9-4.7L37.9-4.7Q37.9-6.3 37.95-7.25L37.95-7.25 38-11.25Q38-18.95 39.57-27.3 41.15-35.65 44.22-41.33 47.3-47 51.6-47L51.6-47Q53.9-47 55.32-45.03 56.75-43.05 56.75-39.9L56.75-39.9Q56.75-34.85 53.8-29.43 50.85-24 44.2-16.75L44.2-16.75Q44.05-14.15 44.05-11.4L44.05-11.4Q45.7-15.65 47.72-18.32 49.75-21 51.72-22.15 53.7-23.3 55.35-23.3L55.35-23.3Q58.6-23.3 58.6-20.05L58.6-20.05Q58.6-18.1 57.5-13L57.5-13Q56.55-8.65 56.55-7.25L56.55-7.25Q56.55-5.25 58-5.25L58-5.25Q59-5.25 60.37-6.48 61.75-7.7 64.05-10.45L64.05-10.45Q64.65-11.15 65.4-11.15L65.4-11.15ZM50.55-42.05Q49.65-42.05 48.55-39.48 47.45-36.9 46.42-32.52 45.4-28.15 44.75-23L44.75-23Q47.85-26.65 49.87-30.95 51.9-35.25 51.9-38.75L51.9-38.75Q51.9-40.35 51.55-41.2 51.2-42.05 50.55-42.05L50.55-42.05ZM66.29 0.25Q64.39 0.25 63.62-1.75 62.84-3.75 62.84-8.15L62.84-8.15Q62.84-14.65 64.69-20.5L64.69-20.5Q65.14-21.95 66.17-22.63 67.19-23.3 69.04-23.3L69.04-23.3Q70.04-23.3 70.44-23.05 70.84-22.8 70.84-22.1L70.84-22.1Q70.84-21.3 70.09-18.5L70.09-18.5Q69.59-16.5 69.29-15 68.99-13.5 68.79-11.3L68.79-11.3Q70.44-15.6 72.49-18.3 74.54-21 76.52-22.15 78.49-23.3 80.14-23.3L80.14-23.3Q83.39-23.3 83.39-20.05L83.39-20.05Q83.39-18.1 82.29-13L82.29-13Q81.34-8.65 81.34-7.25L81.34-7.25Q81.34-5.25 82.79-5.25L82.79-5.25Q83.79-5.25 85.17-6.48 86.54-7.7 88.84-10.45L88.84-10.45Q89.44-11.15 90.19-11.15L90.19-11.15Q90.84-11.15 91.22-10.55 91.59-9.95 91.59-8.9L91.59-8.9Q91.59-6.9 90.64-5.8L90.64-5.8Q88.49-3.15 86.02-1.45 83.54 0.25 80.39 0.25L80.39 0.25Q77.84 0.25 76.54-1.23 75.24-2.7 75.24-5.5L75.24-5.5Q75.24-6.9 75.94-10.5L75.94-10.5Q76.59-13.65 76.59-14.85L76.59-14.85Q76.59-15.65 76.04-15.65L76.04-15.65Q75.39-15.65 74.22-13.98 73.04-12.3 71.82-9.55 70.59-6.8 69.84-3.75L69.84-3.75Q69.29-1.4 68.57-0.58 67.84 0.25 66.29 0.25L66.29 0.25ZM96.84 1.35Q94.24 1.35 92.87 0.15 91.49-1.05 91.49-2.55L91.49-2.55Q91.49-3.85 92.44-4.8 93.39-5.75 95.24-5.75L95.24-5.75Q95.89-5.75 96.77-5.63 97.64-5.5 98.09-5.45L98.09-5.45Q98.04-6.75 97.52-7.9 96.99-9.05 96.19-10.13 95.39-11.2 94.69-12L94.69-12Q93.14-9.05 91.62-7.1 90.09-5.15 88.29-3.4L88.29-3.4Q87.39-2.5 86.39-2.5L86.39-2.5Q85.59-2.5 85.09-3.08 84.59-3.65 84.59-4.5L84.59-4.5Q84.59-5.5 85.29-6.35L85.29-6.35 85.94-7.15Q88.69-10.55 90.09-12.75L90.09-12.75Q90.94-14.2 92.09-16.63 93.24-19.05 94.34-21.65L94.34-21.65Q95.29-23.85 98.29-23.85L98.29-23.85Q99.69-23.85 100.24-23.6 100.79-23.35 100.79-22.8L100.79-22.8Q100.79-22.5 100.59-21.85 100.39-21.2 100.04-20.55L100.04-20.55Q99.14-18.75 99.14-17.5L99.14-17.5Q99.14-16.75 99.67-15.85 100.19-14.95 101.29-13.6L101.29-13.6Q102.89-11.5 103.72-10.03 104.54-8.55 104.54-6.8L104.54-6.8Q104.54-6.3 104.44-5.4L104.44-5.4Q106.89-6.35 110.19-10.45L110.19-10.45Q110.79-11.15 111.54-11.15L111.54-11.15Q112.19-11.15 112.57-10.55 112.94-9.95 112.94-8.9L112.94-8.9Q112.94-7 111.99-5.8L111.99-5.8Q109.49-2.7 107.22-1.58 104.94-0.45 101.59-0.35L101.59-0.35Q99.59 1.35 96.84 1.35L96.84 1.35ZM134.39-15.35Q135.04-15.35 135.39-14.7 135.74-14.05 135.74-13.05L135.74-13.05Q135.74-10.65 134.29-10.2L134.29-10.2Q131.29-9.15 127.69-9L127.69-9Q126.74-4.8 123.94-2.27 121.14 0.25 117.59 0.25L117.59 0.25Q114.59 0.25 112.46-1.2 110.34-2.65 109.24-5.05 108.14-7.45 108.14-10.25L108.14-10.25Q108.14-14.05 109.59-17.03 111.04-20 113.59-21.68 116.14-23.35 119.24-23.35L119.24-23.35Q123.04-23.35 125.36-20.73 127.69-18.1 128.09-14.25L128.09-14.25Q130.44-14.4 133.69-15.25L133.69-15.25Q134.09-15.35 134.39-15.35L134.39-15.35ZM117.99-5.05Q119.59-5.05 120.76-6.35 121.94-7.65 122.34-10.1L122.34-10.1Q120.79-11.15 119.96-12.85 119.14-14.55 119.14-16.45L119.14-16.45Q119.14-17.25 119.29-18.05L119.29-18.05 119.04-18.05Q117.04-18.05 115.71-16.13 114.39-14.2 114.39-10.7L114.39-10.7Q114.39-7.95 115.46-6.5 116.54-5.05 117.99-5.05L117.99-5.05ZM134.99 0.25Q133.09 0.25 132.31-1.75 131.54-3.75 131.54-8.15L131.54-8.15Q131.54-14.65 133.39-20.5L133.39-20.5Q133.84-21.95 134.86-22.63 135.89-23.3 137.74-23.3L137.74-23.3Q138.74-23.3 139.14-23.05 139.54-22.8 139.54-22.1L139.54-22.1Q139.54-21.3 138.79-18.5L138.79-18.5Q138.29-16.5 137.99-15 137.69-13.5 137.49-11.3L137.49-11.3Q139.14-15.6 141.19-18.3 143.24-21 145.21-22.15 147.19-23.3 148.84-23.3L148.84-23.3Q152.09-23.3 152.09-20.05L152.09-20.05Q152.09-18.1 150.99-13L150.99-13Q150.04-8.65 150.04-7.25L150.04-7.25Q150.04-5.25 151.49-5.25L151.49-5.25Q152.49-5.25 153.86-6.48 155.24-7.7 157.54-10.45L157.54-10.45Q158.14-11.15 158.89-11.15L158.89-11.15Q159.54-11.15 159.91-10.55 160.29-9.95 160.29-8.9L160.29-8.9Q160.29-6.9 159.34-5.8L159.34-5.8Q157.19-3.15 154.71-1.45 152.24 0.25 149.09 0.25L149.09 0.25Q146.54 0.25 145.24-1.23 143.94-2.7 143.94-5.5L143.94-5.5Q143.94-6.9 144.64-10.5L144.64-10.5Q145.29-13.65 145.29-14.85L145.29-14.85Q145.29-15.65 144.74-15.65L144.74-15.65Q144.09-15.65 142.91-13.98 141.74-12.3 140.51-9.55 139.29-6.8 138.54-3.75L138.54-3.75Q137.99-1.4 137.26-0.58 136.54 0.25 134.99 0.25L134.99 0.25ZM173.03 0.25Q171.13 0.25 170.36-1.75 169.58-3.75 169.58-8.15L169.58-8.15Q169.58-14.65 171.43-20.5L171.43-20.5Q171.88-21.95 172.91-22.63 173.93-23.3 175.78-23.3L175.78-23.3Q176.78-23.3 177.18-23.05 177.58-22.8 177.58-22.1L177.58-22.1Q177.58-21.3 176.83-18.5L176.83-18.5Q176.33-16.5 176.03-15.03 175.73-13.55 175.53-11.35L175.53-11.35Q176.88-15.25 178.76-17.95 180.63-20.65 182.61-21.98 184.58-23.3 186.33-23.3L186.33-23.3Q188.08-23.3 188.81-22.5 189.53-21.7 189.53-20.05L189.53-20.05Q189.53-18.45 188.58-14.25L188.58-14.25Q188.18-12.45 188.03-11.55L188.03-11.55Q190.53-17.7 193.58-20.5 196.63-23.3 199.28-23.3L199.28-23.3Q202.53-23.3 202.53-20.05L202.53-20.05Q202.53-18.1 201.43-13L201.43-13Q200.48-8.65 200.48-7.25L200.48-7.25Q200.48-5.25 201.93-5.25L201.93-5.25Q202.93-5.25 204.31-6.48 205.68-7.7 207.98-10.45L207.98-10.45Q208.58-11.15 209.33-11.15L209.33-11.15Q209.98-11.15 210.36-10.55 210.73-9.95 210.73-8.9L210.73-8.9Q210.73-6.9 209.78-5.8L209.78-5.8Q207.63-3.15 205.16-1.45 202.68 0.25 199.53 0.25L199.53 0.25Q196.98 0.25 195.68-1.23 194.38-2.7 194.38-5.5L194.38-5.5Q194.38-6.9 195.08-10.5L195.08-10.5Q195.73-13.65 195.73-14.85L195.73-14.85Q195.73-15.65 195.18-15.65L195.18-15.65Q194.53-15.65 193.33-13.98 192.13-12.3 190.93-9.55 189.73-6.8 188.98-3.75L188.98-3.75Q188.43-1.35 187.71-0.55 186.98 0.25 185.38 0.25L185.38 0.25Q183.73 0.25 182.91-1.33 182.08-2.9 182.08-5.15L182.08-5.15Q182.08-7.05 182.58-10.65L182.58-10.65Q182.98-13.85 182.98-14.85L182.98-14.85Q182.98-15.65 182.43-15.65L182.43-15.65Q181.68-15.65 180.53-13.85 179.38-12.05 178.31-9.25 177.23-6.45 176.58-3.75L176.58-3.75Q176.03-1.4 175.31-0.58 174.58 0.25 173.03 0.25L173.03 0.25ZM211.78 0.25Q209.53 0.25 208.1-1.83 206.68-3.9 206.68-7L206.68-7Q206.68-10.75 207.18-13.88 207.68-17 208.83-20.5L208.83-20.5Q209.33-22 210.23-22.65 211.13-23.3 213.08-23.3L213.08-23.3Q214.18-23.3 214.6-22.95 215.03-22.6 215.03-21.9L215.03-21.9Q215.03-21.5 214.48-19.2L214.48-19.2Q213.98-17.35 213.68-15.85L213.68-15.85Q212.68-10.6 212.68-8.85L212.68-8.85Q212.68-7.8 212.93-7.38 213.18-6.95 213.73-6.95L213.73-6.95Q214.48-6.95 215.6-8.45 216.73-9.95 218-13 219.28-16.05 220.48-20.5L220.48-20.5Q220.88-22 221.7-22.65 222.53-23.3 224.18-23.3L224.18-23.3Q225.33-23.3 225.78-23.03 226.23-22.75 226.23-22L226.23-22Q226.23-20.75 224.98-15.15L224.98-15.15Q223.58-8.75 223.58-7.25L223.58-7.25Q223.58-6.3 223.98-5.78 224.38-5.25 225.03-5.25L225.03-5.25Q226.03-5.25 227.4-6.48 228.78-7.7 231.08-10.45L231.08-10.45Q231.68-11.15 232.43-11.15L232.43-11.15Q233.08-11.15 233.45-10.55 233.83-9.95 233.83-8.9L233.83-8.9Q233.83-6.9 232.88-5.8L232.88-5.8Q230.73-3.15 228.25-1.45 225.78 0.25 222.63 0.25L222.63 0.25Q220.23 0.25 219.1-1.6 217.98-3.45 217.98-6.8L217.98-6.8Q217.13-3.4 215.43-1.58 213.73 0.25 211.78 0.25L211.78 0.25ZM239.33 0.25Q234.43 0.25 231.7-2.53 228.98-5.3 228.98-9.85L228.98-9.85Q228.98-13.9 230.58-16.95 232.18-20 234.73-21.65 237.28-23.3 240.08-23.3L240.08-23.3Q242.83-23.3 244.35-21.68 245.88-20.05 245.88-17.5L245.88-17.5Q245.88-15.4 244.95-13.95 244.03-12.5 242.53-12.5L242.53-12.5Q241.58-12.5 241-12.95 240.43-13.4 240.43-14.2L240.43-14.2Q240.43-14.55 240.53-15 240.63-15.45 240.68-15.65L240.68-15.65Q240.93-16.4 240.93-17.05L240.93-17.05Q240.93-17.7 240.6-18.05 240.28-18.4 239.68-18.4L239.68-18.4Q238.53-18.4 237.53-17.38 236.53-16.35 235.93-14.6 235.33-12.85 235.33-10.75L235.33-10.75Q235.33-4.95 240.38-4.95L240.38-4.95Q242.43-4.95 244.8-6.33 247.18-7.7 249.48-10.45L249.48-10.45Q250.08-11.15 250.83-11.15L250.83-11.15Q251.48-11.15 251.85-10.55 252.23-9.95 252.23-8.9L252.23-8.9Q252.23-7 251.28-5.8L251.28-5.8Q248.93-2.9 245.65-1.33 242.38 0.25 239.33 0.25L239.33 0.25ZM275.92-11.15Q276.57-11.15 276.95-10.55 277.32-9.95 277.32-8.9L277.32-8.9Q277.32-6.9 276.37-5.8L276.37-5.8Q274.07-3.15 271.65-1.45 269.22 0.25 266.12 0.25L266.12 0.25Q263.57 0.25 262.27-1.23 260.97-2.7 260.97-5.5L260.97-5.5Q260.97-6.9 261.67-10.5L261.67-10.5Q262.32-13.65 262.32-14.85L262.32-14.85Q262.32-15.65 261.77-15.65L261.77-15.65Q261.12-15.65 259.92-13.98 258.72-12.3 257.52-9.55 256.32-6.8 255.57-3.75L255.57-3.75Q254.62 0.25 250.87 0.25L250.87 0.25Q249.37 0.25 248.9-0.83 248.42-1.9 248.42-4.7L248.42-4.7Q248.42-6.3 248.47-7.25L248.47-7.25 248.52-11.25Q248.52-18.95 250.1-27.3 251.67-35.65 254.75-41.33 257.82-47 262.12-47L262.12-47Q264.42-47 265.85-45.03 267.27-43.05 267.27-39.9L267.27-39.9Q267.27-34.85 264.32-29.43 261.37-24 254.72-16.75L254.72-16.75Q254.57-14.15 254.57-11.4L254.57-11.4Q256.22-15.65 258.25-18.32 260.27-21 262.25-22.15 264.22-23.3 265.87-23.3L265.87-23.3Q269.12-23.3 269.12-20.05L269.12-20.05Q269.12-18.1 268.02-13L268.02-13Q267.07-8.65 267.07-7.25L267.07-7.25Q267.07-5.25 268.52-5.25L268.52-5.25Q269.52-5.25 270.9-6.48 272.27-7.7 274.57-10.45L274.57-10.45Q275.17-11.15 275.92-11.15L275.92-11.15ZM261.07-42.05Q260.17-42.05 259.07-39.48 257.97-36.9 256.95-32.52 255.92-28.15 255.27-23L255.27-23Q258.37-26.65 260.4-30.95 262.42-35.25 262.42-38.75L262.42-38.75Q262.42-40.35 262.07-41.2 261.72-42.05 261.07-42.05L261.07-42.05ZM279.82-26.6Q277.72-26.6 276.67-27.58 275.62-28.55 275.62-30.3L275.62-30.3Q275.62-32.05 277-33.23 278.37-34.4 280.42-34.4L280.42-34.4Q282.27-34.4 283.42-33.5 284.57-32.6 284.57-30.95L284.57-30.95Q284.57-28.95 283.27-27.78 281.97-26.6 279.82-26.6L279.82-26.6ZM279.42 0.25Q276.17 0.25 274.7-2.05 273.22-4.35 273.22-8.15L273.22-8.15Q273.22-10.4 273.8-13.93 274.37-17.45 275.27-20.5L275.27-20.5Q275.72-22.1 276.47-22.7 277.22-23.3 278.87-23.3L278.87-23.3Q281.42-23.3 281.42-21.6L281.42-21.6Q281.42-20.35 280.47-15.8L280.47-15.8Q279.27-10.3 279.27-8.35L279.27-8.35Q279.27-6.85 279.67-6.05 280.07-5.25 281.02-5.25L281.02-5.25Q281.92-5.25 283.27-6.5 284.62-7.75 286.87-10.45L286.87-10.45Q287.47-11.15 288.22-11.15L288.22-11.15Q288.87-11.15 289.25-10.55 289.62-9.95 289.62-8.9L289.62-8.9Q289.62-6.9 288.67-5.8L288.67-5.8Q283.72 0.25 279.42 0.25L279.42 0.25ZM289.12 0.25Q287.22 0.25 286.44-1.75 285.67-3.75 285.67-8.15L285.67-8.15Q285.67-14.65 287.52-20.5L287.52-20.5Q287.97-21.95 288.99-22.63 290.02-23.3 291.87-23.3L291.87-23.3Q292.87-23.3 293.27-23.05 293.67-22.8 293.67-22.1L293.67-22.1Q293.67-21.3 292.92-18.5L292.92-18.5Q292.42-16.5 292.12-15 291.82-13.5 291.62-11.3L291.62-11.3Q293.27-15.6 295.32-18.3 297.37-21 299.34-22.15 301.32-23.3 302.97-23.3L302.97-23.3Q306.22-23.3 306.22-20.05L306.22-20.05Q306.22-19.4 305.77-16.9L305.77-16.9Q305.37-14.9 305.37-14.4L305.37-14.4Q305.37-12.65 306.62-12.65L306.62-12.65Q308.02-12.65 310.22-14.85L310.22-14.85Q310.87-15.5 311.57-15.5L311.57-15.5Q312.22-15.5 312.59-14.93 312.97-14.35 312.97-13.4L312.97-13.4Q312.97-11.55 311.97-10.5L311.97-10.5Q310.57-9.05 308.69-8.03 306.82-7 304.72-7L304.72-7Q302.07-7 300.69-8.35 299.32-9.7 299.32-12L299.32-12Q299.32-12.75 299.47-13.5L299.47-13.5Q299.57-14.5 299.57-14.85L299.57-14.85Q299.57-15.65 299.02-15.65L299.02-15.65Q298.27-15.65 297.04-13.98 295.82-12.3 294.62-9.55 293.42-6.8 292.67-3.75L292.67-3.75Q292.12-1.4 291.39-0.58 290.67 0.25 289.12 0.25L289.12 0.25ZM314.87-26.6Q312.77-26.6 311.72-27.58 310.67-28.55 310.67-30.3L310.67-30.3Q310.67-32.05 312.04-33.23 313.42-34.4 315.47-34.4L315.47-34.4Q317.32-34.4 318.47-33.5 319.62-32.6 319.62-30.95L319.62-30.95Q319.62-28.95 318.32-27.78 317.02-26.6 314.87-26.6L314.87-26.6ZM314.47 0.25Q311.22 0.25 309.74-2.05 308.27-4.35 308.27-8.15L308.27-8.15Q308.27-10.4 308.84-13.93 309.42-17.45 310.32-20.5L310.32-20.5Q310.77-22.1 311.52-22.7 312.27-23.3 313.92-23.3L313.92-23.3Q316.47-23.3 316.47-21.6L316.47-21.6Q316.47-20.35 315.52-15.8L315.52-15.8Q314.32-10.3 314.32-8.35L314.32-8.35Q314.32-6.85 314.72-6.05 315.12-5.25 316.07-5.25L316.07-5.25Q316.97-5.25 318.32-6.5 319.67-7.75 321.92-10.45L321.92-10.45Q322.52-11.15 323.27-11.15L323.27-11.15Q323.92-11.15 324.29-10.55 324.67-9.95 324.67-8.9L324.67-8.9Q324.67-6.9 323.72-5.8L323.72-5.8Q318.77 0.25 314.47 0.25L314.47 0.25Z" opacity="1" transform="matrix(1,0,0,1,0,0)" fill="#c9efc7" class="undefined-text-1" data-fill-palette-color="secondary" id="text-1"></path></svg></g></svg></g></svg></g></svg></g><g></g></svg></g><defs></defs></svg><rect width="395.52" height="310.22449232236625" fill="none" stroke="none" visibility="hidden"></rect></g></svg></g></svg>